<svg width="120" height="40" viewBox="0 0 120 40" fill="none" xmlns="http://www.w3.org/2000/svg">
  <!-- Sprig/Plant Icon -->
  <g id="sprig-icon">
    <!-- Stem -->
    <path d="M15 35 C15 25, 15 15, 15 8" stroke="#06D6A0" stroke-width="2.5" stroke-linecap="round" />
    
    <!-- Main Leaf -->
    <path d="M15 8 C15 8, 20 5, 25 8 C27 10, 25 15, 20 15 C17 15, 15 12, 15 8 Z" fill="#06D6A0" />
    
    <!-- Secondary Leaf -->
    <path d="M15 15 C15 15, 10 12, 8 15 C7 17, 9 20, 12 19 C14 18, 15 16, 15 15 Z" fill="#3A86FF" />
    
    <!-- Small Growth Bud -->
    <circle cx="15" cy="8" r="1.5" fill="#FFD166" />
    
    <!-- Root System -->
    <path d="M15 35 C12 36, 10 37, 8 38 M15 35 C18 36, 20 37, 22 38" stroke="#06D6A0" stroke-width="1.5" stroke-linecap="round" opacity="0.6" />
  </g>
  
  <!-- Mentra Text -->
  <g id="mentra-text">
    <text x="35" y="28" font-family="Poppins, system-ui, sans-serif" font-size="18" font-weight="600" fill="#3A86FF">
      Mentra
    </text>
  </g>
  
  <!-- Growth Sparkles -->
  <g id="sparkles" opacity="0.4">
    <circle cx="26" cy="6" r="1" fill="#FFD166" />
    <circle cx="23" cy="10" r="0.8" fill="#FF6B6B" />
    <circle cx="29" cy="12" r="0.6" fill="#3A86FF" />
  </g>
</svg> 